<?xml version="1.0" standalone="no"?>
<!DOCTYPE svg PUBLIC "-//W3C//DTD SVG 20010904//EN"
 "http://www.w3.org/TR/2001/REC-SVG-20010904/DTD/svg10.dtd">
<svg version="1.0" xmlns="http://www.w3.org/2000/svg"
 width="203.000000pt" height="203.000000pt" viewBox="0 0 203.000000 203.000000"
 preserveAspectRatio="xMidYMid meet">
<metadata>
Created by potrace 1.11, written by Peter Selinger 2001-2013
</metadata>
<g transform="translate(0.000000,203.000000) scale(0.100000,-0.100000)"
fill="#000000" stroke="none">
<path d="M946 1547 c-15 -15 -25 -41 -30 -77 -7 -56 -20 -80 -40 -80 -6 0 -42
25 -79 55 -75 60 -100 66 -141 34 -22 -17 -26 -28 -24 -57 l3 -37 -70 -23
c-159 -53 -286 -144 -340 -243 -39 -72 -42 -171 -6 -239 67 -129 243 -225 506
-276 123 -25 413 -25 542 -1 252 47 438 149 504 277 36 69 33 168 -6 239 -16
29 -54 76 -85 103 -55 50 -197 125 -277 149 -41 12 -43 14 -43 50 0 29 -6 42
-26 58 -41 32 -67 26 -141 -34 -37 -30 -73 -55 -79 -55 -20 0 -32 23 -39 79
-12 91 -77 130 -129 78z m89 -17 c12 -13 21 -50 29 -115 l11 -96 97 81 c53 44
104 80 114 80 25 0 54 -29 54 -55 0 -12 -15 -42 -33 -66 -18 -24 -45 -60 -60
-79 l-26 -35 140 15 c155 18 182 14 187 -31 2 -14 -3 -31 -10 -37 -8 -6 -72
-20 -143 -31 -120 -18 -131 -18 -139 -3 -20 35 -92 105 -131 125 -32 18 -57
22 -130 22 -73 0 -98 -4 -130 -22 -38 -20 -110 -89 -131 -125 -8 -14 -20 -14
-129 2 -66 10 -128 21 -138 25 -25 10 -33 53 -14 72 18 19 60 18 214 0 l102
-13 -26 36 c-15 19 -42 55 -60 79 -18 24 -33 53 -33 64 0 27 28 57 52 57 11 0
63 -36 116 -80 l97 -81 12 97 c13 103 29 134 68 134 12 0 30 -9 40 -20z m-501
-401 c28 -22 32 -39 14 -57 -8 -8 -17 -6 -36 8 -28 23 -101 27 -120 8 -24 -24
-11 -39 61 -72 104 -48 132 -88 102 -145 -19 -37 -61 -60 -123 -68 -84 -10
-160 39 -128 83 13 17 15 17 46 -9 48 -41 130 -32 130 13 0 22 -27 41 -84 61
-91 32 -124 109 -68 161 35 33 45 36 118 37 48 1 67 -4 88 -20z m283 -66 c35
-23 58 -74 54 -120 -1 -10 -29 -13 -106 -13 -117 0 -125 -6 -81 -57 20 -24 32
-28 70 -27 33 1 53 7 69 23 25 23 37 19 37 -11 0 -45 -133 -78 -193 -47 -71
37 -99 105 -72 174 19 51 41 72 92 91 43 16 94 10 130 -13z m268 13 c49 -21
62 -55 66 -174 4 -100 4 -102 -18 -102 -13 0 -32 9 -42 19 -17 17 -22 17 -31
6 -36 -44 -135 -38 -166 10 -31 48 18 103 116 131 61 17 75 35 48 62 -17 17
-93 15 -108 -3 -17 -21 -40 -19 -40 3 0 19 24 45 50 55 29 10 91 7 125 -7z
m296 4 c12 -7 19 -21 19 -40 0 -30 -13 -40 -25 -20 -10 16 -57 12 -77 -7 -15
-13 -18 -32 -18 -115 l0 -98 -42 0 -43 0 0 140 0 140 27 0 c16 0 33 -8 39 -18
11 -18 13 -17 35 5 25 25 54 29 85 13z m217 -10 c47 -29 62 -73 62 -180 0 -88
-1 -90 -23 -90 -13 0 -32 9 -41 19 -18 19 -19 19 -38 1 -23 -21 -77 -33 -104
-24 -33 12 -64 47 -64 72 0 37 50 76 124 96 68 19 73 24 56 57 -15 27 -88 26
-124 -2 l-26 -20 0 23 c0 31 10 45 40 57 42 16 103 12 138 -9z"/>
<path d="M692 1027 c-36 -38 -28 -47 43 -47 36 0 65 4 65 9 0 20 -43 61 -64
61 -12 0 -32 -10 -44 -23z"/>
<path d="M1026 926 c-21 -6 -45 -21 -53 -32 -20 -31 8 -58 51 -50 41 9 48 17
44 58 l-3 35 -39 -11z"/>
<path d="M1533 927 c-42 -15 -67 -41 -60 -61 8 -21 47 -29 80 -17 23 9 27 16
27 51 0 44 0 44 -47 27z"/>
</g>
</svg>
